<?xml version="1.0" standalone="no"?>
<!DOCTYPE svg PUBLIC "-//W3C//DTD SVG 20010904//EN"
 "http://www.w3.org/TR/2001/REC-SVG-20010904/DTD/svg10.dtd">
<svg version="1.0" xmlns="http://www.w3.org/2000/svg"
 width="121.000000pt" height="121.000000pt" viewBox="0 0 121.000000 121.000000"
 preserveAspectRatio="xMidYMid meet">
<metadata>
Created by potrace 1.11, written by Peter Selinger 2001-2013
</metadata>
<g transform="translate(0.000000,121.000000) scale(0.100000,-0.100000)"
fill="#000000" stroke="none">
<path d="M184 1101 c-105 -48 -124 -162 -44 -254 l39 -44 -40 -18 c-47 -22
-94 -72 -120 -129 -17 -37 -19 -70 -19 -303 l0 -263 605 0 c375 0 605 4 605 9
0 6 -13 29 -29 53 -15 24 -59 99 -96 167 l-68 124 18 49 c13 36 16 66 12 108
-4 49 -2 62 14 76 10 9 19 24 19 32 0 8 -23 58 -52 110 -29 55 -55 117 -59
145 -15 94 -72 150 -154 151 -83 1 -155 -66 -155 -145 0 -22 -19 -68 -55 -133
-69 -125 -69 -128 -46 -157 13 -17 20 -47 24 -104 4 -44 9 -96 12 -115 5 -30
-1 -47 -46 -122 -29 -48 -56 -85 -61 -82 -4 3 -8 83 -8 177 0 95 -4 187 -10
206 -15 55 -60 111 -112 140 l-48 28 30 28 c39 37 64 104 56 147 -19 104 -121
161 -212 119z m527 -274 c18 -14 18 -15 -23 -42 -24 -15 -53 -40 -66 -56 -13
-16 -28 -29 -33 -29 -18 0 -9 28 33 103 39 69 43 74 55 57 8 -11 23 -26 34
-33z m297 -36 c23 -43 42 -81 42 -85 0 -17 -28 -2 -53 29 -15 19 -46 44 -67
55 l-40 20 33 30 c17 16 34 30 37 30 3 0 24 -35 48 -79z m-827 -35 c-9 -10 -7
-17 5 -27 14 -11 19 -10 35 10 l20 24 24 -23 c26 -24 50 -19 42 10 -4 15 -1
17 17 11 11 -5 20 -12 18 -17 -9 -34 -37 -112 -66 -182 l-33 -84 -51 134 c-46
121 -49 134 -35 146 22 16 38 15 24 -2z m586 -107 l44 -21 49 21 c61 26 111
27 134 2 25 -28 30 -80 11 -131 -9 -25 -19 -52 -21 -61 -3 -9 33 -84 80 -168
47 -84 86 -157 86 -162 0 -5 -143 -9 -340 -9 -187 0 -340 2 -340 5 0 3 40 78
90 166 86 155 89 162 74 184 -24 37 -30 139 -10 170 21 32 81 34 143 4z m-362
-39 c3 -5 -3 -10 -15 -10 -12 0 -18 5 -15 10 3 6 10 10 15 10 5 0 12 -4 15
-10z"/>
</g>
</svg>
